<?xml version="1.0" encoding="UTF-8" standalone="no"?>
<!-- Created with Inkscape (http://www.inkscape.org/) -->

<svg
   xmlns:dc="http://purl.org/dc/elements/1.1/"
   xmlns:cc="http://creativecommons.org/ns#"
   xmlns:rdf="http://www.w3.org/1999/02/22-rdf-syntax-ns#"
   xmlns:svg="http://www.w3.org/2000/svg"
   xmlns="http://www.w3.org/2000/svg"
   xmlns:sodipodi="http://sodipodi.sourceforge.net/DTD/sodipodi-0.dtd"
   xmlns:inkscape="http://www.inkscape.org/namespaces/inkscape"
   width="57.837811mm"
   height="33.838673mm"
   viewBox="0 0 57.837811 33.838673"
   version="1.1"
   id="svg4571"
   inkscape:version="0.92.4 5da689c313, 2019-01-14"
   sodipodi:docname="logo-footer.svg">
  <defs
     id="defs4565" />
  <sodipodi:namedview
     id="base"
     pagecolor="#ffffff"
     bordercolor="#666666"
     borderopacity="1.0"
     inkscape:pageopacity="0.0"
     inkscape:pageshadow="2"
     inkscape:zoom="0.98994949"
     inkscape:cx="209.75332"
     inkscape:cy="-79.060736"
     inkscape:document-units="mm"
     inkscape:current-layer="layer1"
     showgrid="false"
     fit-margin-top="0"
     fit-margin-left="0"
     fit-margin-right="0"
     fit-margin-bottom="0"
     inkscape:window-width="1920"
     inkscape:window-height="1051"
     inkscape:window-x="0"
     inkscape:window-y="0"
     inkscape:window-maximized="1" />
  <metadata
     id="metadata4568">
    <rdf:RDF>
      <cc:Work
         rdf:about="">
        <dc:format>image/svg+xml</dc:format>
        <dc:type
           rdf:resource="http://purl.org/dc/dcmitype/StillImage" />
        <dc:title></dc:title>
      </cc:Work>
    </rdf:RDF>
  </metadata>
  <g
     inkscape:label="Capa 1"
     inkscape:groupmode="layer"
     id="layer1"
     transform="translate(105.2701,56.318146)">
    <g
       id="g4742">
      <g
         transform="matrix(0.35277777,0,0,-0.35277777,-94.931943,-36.873141)"
         id="g256">
        <path
           inkscape:connector-curvature="0"
           id="path258"
           style="fill:#ffffff;fill-opacity:1;fill-rule:nonzero;stroke:none"
           d="m 0,0 -11.607,-26.814 h -6.128 L -29.305,0 h 6.704 l 8.16,-19.153 L -6.167,0 Z" />
      </g>
      <g
         transform="matrix(0.35277777,0,0,-0.35277777,-89.999405,-31.102922)"
         id="g260">
        <path
           inkscape:connector-curvature="0"
           id="path262"
           style="fill:#ffffff;fill-opacity:1;fill-rule:nonzero;stroke:none"
           d="M 0,0 -4.254,10.265 -8.506,0 Z m 1.953,-4.713 h -12.449 l -2.375,-5.745 h -6.36 L -7.28,16.357 h 6.129 L 10.84,-10.458 H 4.327 Z" />
      </g>
      <g
         transform="matrix(0.35277777,0,0,-0.35277777,-83.411527,-27.88006)"
         id="g264">
        <path
           inkscape:connector-curvature="0"
           id="path266"
           style="fill:#ffffff;fill-opacity:1;fill-rule:nonzero;stroke:none"
           d="m 0,0 c -2.209,1.187 -3.946,2.832 -5.211,4.939 -1.265,2.108 -1.895,4.489 -1.895,7.146 0,2.655 0.63,5.036 1.895,7.145 1.265,2.106 3.002,3.752 5.211,4.942 2.207,1.185 4.692,1.78 7.451,1.78 2.322,0 4.423,-0.41 6.3,-1.226 1.878,-0.819 3.454,-1.992 4.732,-3.526 l -3.984,-3.676 c -1.814,2.093 -4.062,3.142 -6.741,3.142 -1.663,0 -3.143,-0.364 -4.444,-1.094 C 2.01,18.845 0.995,17.83 0.267,16.527 -0.46,15.226 -0.825,13.745 -0.825,12.085 -0.825,10.424 -0.46,8.943 0.267,7.642 0.995,6.339 2.01,5.324 3.314,4.596 4.615,3.869 6.095,3.505 7.758,3.505 c 2.679,0 4.927,1.059 6.741,3.181 L 18.483,3.007 C 17.205,1.449 15.622,0.261 13.733,-0.556 11.843,-1.373 9.736,-1.783 7.413,-1.783 4.68,-1.783 2.207,-1.189 0,0" />
      </g>
      <g
         transform="matrix(0.35277777,0,0,-0.35277777,-71.70181,-31.130148)"
         id="g268">
        <path
           inkscape:connector-curvature="0"
           id="path270"
           style="fill:#ffffff;fill-opacity:1;fill-rule:nonzero;stroke:none"
           d="m 0,0 -3.602,-3.756 v -6.779 h -6.167 v 26.814 h 6.167 V 3.753 L 8.272,16.279 h 6.896 L 4.059,4.326 15.818,-10.535 H 8.581 Z" />
      </g>
      <g
         transform="matrix(0.35277777,0,0,-0.35277777,-57.554187,-29.170221)"
         id="g272">
        <path
           inkscape:connector-curvature="0"
           id="path274"
           style="fill:#ffffff;fill-opacity:1;fill-rule:nonzero;stroke:none"
           d="m 0,0 v -4.979 h -20.763 v 26.814 h 20.265 v -4.98 H -14.594 V 11.032 H -4.576 V 6.207 H -14.594 V 0 Z" />
      </g>
      <g
         transform="matrix(0.35277777,0,0,-0.35277777,-50.337764,-34.663791)"
         id="g276">
        <path
           inkscape:connector-curvature="0"
           id="path278"
           style="fill:#ffffff;fill-opacity:1;fill-rule:nonzero;stroke:none"
           d="m 0,0 c -0.971,0.804 -2.388,1.206 -4.252,1.206 h -5.057 v -9.348 h 5.057 c 1.864,0 3.281,0.409 4.252,1.227 0.972,0.816 1.455,1.965 1.455,3.446 C 1.455,-1.961 0.972,-0.806 0,0 m 1.568,-20.552 -5.168,7.469 h -0.308 -5.401 v -7.469 h -6.206 V 6.263 h 11.607 c 2.377,0 4.438,-0.397 6.187,-1.188 1.75,-0.792 3.097,-1.917 4.042,-3.373 0.946,-1.455 1.417,-3.178 1.417,-5.171 0,-1.99 -0.477,-3.71 -1.436,-5.151 -0.956,-1.444 -2.316,-2.549 -4.081,-3.313 l 6.015,-8.619 z" />
      </g>
      <g
         transform="matrix(0.35277777,0,0,-0.35277777,-95.302113,-24.873864)"
         id="g280">
        <path
           inkscape:connector-curvature="0"
           id="path282"
           style="fill:#ffffff;fill-opacity:1;fill-rule:nonzero;stroke:none"
           d="M 0,0 V -6.729 H -0.586 L -4.913,-1.27 V -6.729 H -5.624 V 0 h 0.587 l 4.336,-5.461 V 0 Z" />
      </g>
      <g
         transform="matrix(0.35277777,0,0,-0.35277777,-92.850061,-22.716875)"
         id="g284">
        <path
           inkscape:connector-curvature="0"
           id="path286"
           style="fill:#ffffff;fill-opacity:1;fill-rule:nonzero;stroke:none"
           d="m 0,0 v -0.615 h -4.759 v 6.729 h 4.614 V 5.499 H -4.048 V 3.105 h 3.48 V 2.499 h -3.48 V 0 Z" />
      </g>
      <g
         transform="matrix(0.35277777,0,0,-0.35277777,-90.601809,-23.686679)"
         id="g288">
        <path
           inkscape:connector-curvature="0"
           id="path290"
           style="fill:#ffffff;fill-opacity:1;fill-rule:nonzero;stroke:none"
           d="m 0,0 h 0.682 v -2.566 c -0.313,-0.276 -0.685,-0.488 -1.114,-0.635 -0.43,-0.148 -0.881,-0.221 -1.356,-0.221 -0.673,0 -1.278,0.147 -1.817,0.442 -0.538,0.294 -0.961,0.704 -1.269,1.226 -0.307,0.523 -0.461,1.107 -0.461,1.754 0,0.647 0.154,1.232 0.461,1.755 0.308,0.522 0.731,0.931 1.269,1.225 0.539,0.295 1.148,0.443 1.827,0.443 0.512,0 0.984,-0.082 1.413,-0.245 C 0.064,3.014 0.426,2.771 0.721,2.452 L 0.279,2 c -0.532,0.525 -1.208,0.788 -2.028,0.788 -0.545,0 -1.037,-0.12 -1.476,-0.36 -0.438,-0.24 -0.783,-0.574 -1.034,-1 C -4.509,1.002 -4.634,0.525 -4.634,0 c 0,-0.525 0.125,-1 0.375,-1.423 0.251,-0.423 0.593,-0.756 1.029,-0.999 0.436,-0.244 0.926,-0.366 1.47,-0.366 0.693,0 1.28,0.174 1.76,0.52 z" />
      </g>
      <g
         transform="matrix(0.35277777,0,0,-0.35277777,-88.105835,-22.830222)"
         id="g292">
        <path
           inkscape:connector-curvature="0"
           id="path294"
           style="fill:#ffffff;fill-opacity:1;fill-rule:nonzero;stroke:none"
           d="m 0,0 c 0.43,0.24 0.767,0.574 1.009,1.001 0.244,0.425 0.366,0.901 0.366,1.427 0,0.525 -0.122,1.002 -0.366,1.427 -0.242,0.427 -0.579,0.76 -1.009,1 -0.43,0.241 -0.91,0.361 -1.441,0.361 -0.533,0 -1.016,-0.12 -1.447,-0.361 -0.433,-0.24 -0.774,-0.573 -1.02,-1 -0.246,-0.425 -0.37,-0.902 -0.37,-1.427 0,-0.526 0.124,-1.002 0.37,-1.427 C -3.662,0.574 -3.321,0.24 -2.888,0 -2.457,-0.239 -1.974,-0.36 -1.441,-0.36 -0.91,-0.36 -0.43,-0.239 0,0 m -3.254,-0.547 c -0.541,0.298 -0.964,0.707 -1.269,1.226 -0.305,0.519 -0.456,1.101 -0.456,1.749 0,0.647 0.151,1.23 0.456,1.75 0.305,0.519 0.728,0.927 1.269,1.225 0.541,0.298 1.146,0.448 1.813,0.448 0.666,0 1.267,-0.148 1.802,-0.443 C 0.896,5.113 1.317,4.705 1.625,4.183 1.933,3.66 2.086,3.075 2.086,2.428 2.086,1.78 1.933,1.196 1.625,0.674 1.317,0.151 0.896,-0.258 0.361,-0.553 c -0.535,-0.295 -1.136,-0.441 -1.802,-0.441 -0.667,0 -1.272,0.148 -1.813,0.447" />
      </g>
      <g
         transform="matrix(0.35277777,0,0,-0.35277777,-86.41169,-22.635225)"
         id="g296">
        <path
           inkscape:connector-curvature="0"
           id="path298"
           style="fill:#ffffff;fill-opacity:1;fill-rule:nonzero;stroke:none"
           d="m 0,0 c -0.535,0.295 -0.955,0.704 -1.259,1.227 -0.305,0.522 -0.456,1.106 -0.456,1.753 0,0.648 0.151,1.233 0.456,1.755 0.304,0.523 0.725,0.931 1.264,1.226 0.538,0.295 1.141,0.442 1.807,0.442 0.501,0 0.961,-0.084 1.384,-0.25 C 3.619,5.986 3.978,5.743 4.273,5.422 L 3.821,4.971 C 3.295,5.502 2.633,5.769 1.831,5.769 1.3,5.769 0.816,5.647 0.38,5.403 -0.056,5.159 -0.398,4.826 -0.644,4.403 -0.89,3.98 -1.014,3.506 -1.014,2.98 c 0,-0.525 0.124,-1 0.37,-1.422 C -0.398,1.135 -0.056,0.802 0.38,0.559 0.816,0.314 1.3,0.192 1.831,0.192 c 0.809,0 1.471,0.27 1.99,0.809 L 4.273,0.549 C 3.978,0.229 3.618,-0.018 3.192,-0.186 2.766,-0.356 2.303,-0.441 1.802,-0.441 1.136,-0.441 0.536,-0.295 0,0" />
      </g>
      <path
         inkscape:connector-curvature="0"
         id="path300"
         style="fill:#ffffff;fill-opacity:1;fill-rule:nonzero;stroke:none;stroke-width:0.35277775"
         d="m -84.368225,-24.873676 h 0.250825 v 2.373841 h -0.250825 z" />
      <g
         transform="matrix(0.35277777,0,0,-0.35277777,-81.798026,-22.830222)"
         id="g302">
        <path
           inkscape:connector-curvature="0"
           id="path304"
           style="fill:#ffffff;fill-opacity:1;fill-rule:nonzero;stroke:none"
           d="m 0,0 c 0.43,0.24 0.767,0.574 1.009,1.001 0.244,0.425 0.366,0.901 0.366,1.427 0,0.525 -0.122,1.002 -0.366,1.427 -0.242,0.427 -0.579,0.76 -1.009,1 -0.43,0.241 -0.91,0.361 -1.441,0.361 -0.533,0 -1.015,-0.12 -1.447,-0.361 -0.433,-0.24 -0.774,-0.573 -1.02,-1 -0.246,-0.425 -0.37,-0.902 -0.37,-1.427 0,-0.526 0.124,-1.002 0.37,-1.427 C -3.662,0.574 -3.321,0.24 -2.888,0 -2.456,-0.239 -1.974,-0.36 -1.441,-0.36 -0.91,-0.36 -0.43,-0.239 0,0 m -3.254,-0.547 c -0.541,0.298 -0.964,0.707 -1.269,1.226 -0.305,0.519 -0.456,1.101 -0.456,1.749 0,0.647 0.151,1.23 0.456,1.75 0.305,0.519 0.728,0.927 1.269,1.225 0.541,0.298 1.146,0.448 1.813,0.448 0.666,0 1.266,-0.148 1.802,-0.443 C 0.896,5.113 1.317,4.705 1.625,4.183 1.933,3.66 2.086,3.075 2.086,2.428 2.086,1.78 1.933,1.196 1.625,0.674 1.317,0.151 0.896,-0.258 0.361,-0.553 c -0.536,-0.295 -1.136,-0.441 -1.802,-0.441 -0.667,0 -1.272,0.148 -1.813,0.447" />
      </g>
      <g
         transform="matrix(0.35277777,0,0,-0.35277777,-80.351427,-22.564263)"
         id="g306">
        <path
           inkscape:connector-curvature="0"
           id="path308"
           style="fill:#ffffff;fill-opacity:1;fill-rule:nonzero;stroke:none"
           d="m 0,0 c -0.458,0.16 -0.812,0.372 -1.062,0.635 l 0.279,0.548 C -0.54,0.939 -0.216,0.742 0.188,0.591 0.591,0.44 1.007,0.365 1.437,0.365 2.039,0.365 2.492,0.476 2.793,0.697 3.094,0.918 3.244,1.205 3.244,1.558 3.244,1.826 3.162,2.041 3,2.201 2.836,2.361 2.635,2.485 2.399,2.571 2.162,2.658 1.832,2.752 1.408,2.855 0.903,2.983 0.498,3.107 0.197,3.225 c -0.302,0.119 -0.559,0.3 -0.773,0.544 -0.216,0.243 -0.323,0.573 -0.323,0.99 0,0.34 0.089,0.648 0.27,0.928 0.179,0.278 0.455,0.5 0.826,0.668 0.372,0.166 0.834,0.25 1.385,0.25 0.384,0 0.761,-0.054 1.128,-0.16 C 3.08,6.34 3.399,6.194 3.667,6.009 L 3.427,5.441 C 3.145,5.627 2.844,5.767 2.524,5.859 2.203,5.952 1.889,5.998 1.582,5.998 0.992,5.998 0.548,5.885 0.25,5.657 -0.048,5.43 -0.197,5.137 -0.197,4.778 -0.197,4.509 -0.116,4.292 0.047,4.129 0.211,3.966 0.417,3.84 0.663,3.754 0.91,3.668 1.242,3.573 1.658,3.471 2.152,3.349 2.55,3.229 2.855,3.109 3.16,2.991 3.418,2.813 3.629,2.571 3.84,2.331 3.946,2.006 3.946,1.596 3.946,1.256 3.855,0.947 3.672,0.668 3.489,0.39 3.21,0.168 2.831,0.005 2.453,-0.158 1.988,-0.24 1.437,-0.24 0.938,-0.24 0.459,-0.16 0,0" />
      </g>
      <path
         inkscape:connector-curvature="0"
         id="path310"
         style="fill:#ffffff;fill-opacity:1;fill-rule:nonzero;stroke:none;stroke-width:0.35277775"
         d="m -77.525043,-24.873676 h 0.250825 v 2.373841 h -0.250825 z" />
      <g
         transform="matrix(0.35277777,0,0,-0.35277777,-74.516976,-24.873864)"
         id="g312">
        <path
           inkscape:connector-curvature="0"
           id="path314"
           style="fill:#ffffff;fill-opacity:1;fill-rule:nonzero;stroke:none"
           d="M 0,0 V -6.729 H -0.587 L -4.913,-1.27 V -6.729 H -5.624 V 0 h 0.586 l 4.337,-5.461 V 0 Z" />
      </g>
      <g
         transform="matrix(0.35277777,0,0,-0.35277777,-71.278405,-24.873864)"
         id="g316">
        <path
           inkscape:connector-curvature="0"
           id="path318"
           style="fill:#ffffff;fill-opacity:1;fill-rule:nonzero;stroke:none"
           d="m 0,0 v -6.729 h -0.682 v 5.382 l -2.645,-4.527 h -0.335 l -2.644,4.499 V -6.729 H -6.989 V 0 h 0.587 L -3.48,-4.989 -0.586,0 Z" />
      </g>
      <g
         transform="matrix(0.35277777,0,0,-0.35277777,-68.958856,-22.830222)"
         id="g320">
        <path
           inkscape:connector-curvature="0"
           id="path322"
           style="fill:#ffffff;fill-opacity:1;fill-rule:nonzero;stroke:none"
           d="m 0,0 c 0.43,0.24 0.767,0.574 1.009,1.001 0.245,0.425 0.366,0.901 0.366,1.427 0,0.525 -0.121,1.002 -0.366,1.427 -0.242,0.427 -0.579,0.76 -1.009,1 -0.43,0.241 -0.91,0.361 -1.441,0.361 -0.533,0 -1.015,-0.12 -1.447,-0.361 -0.433,-0.24 -0.773,-0.573 -1.02,-1 -0.246,-0.425 -0.37,-0.902 -0.37,-1.427 0,-0.526 0.124,-1.002 0.37,-1.427 C -3.661,0.574 -3.321,0.24 -2.888,0 -2.456,-0.239 -1.974,-0.36 -1.441,-0.36 -0.91,-0.36 -0.43,-0.239 0,0 m -3.254,-0.547 c -0.541,0.298 -0.964,0.707 -1.269,1.226 -0.305,0.519 -0.456,1.101 -0.456,1.749 0,0.647 0.151,1.23 0.456,1.75 0.305,0.519 0.728,0.927 1.269,1.225 0.542,0.298 1.146,0.448 1.813,0.448 0.666,0 1.267,-0.148 1.802,-0.443 C 0.896,5.113 1.318,4.705 1.625,4.183 1.933,3.66 2.087,3.075 2.087,2.428 2.087,1.78 1.933,1.196 1.625,0.674 1.318,0.151 0.896,-0.258 0.361,-0.553 c -0.535,-0.295 -1.136,-0.441 -1.802,-0.441 -0.667,0 -1.271,0.148 -1.813,0.447" />
      </g>
      <g
         transform="matrix(0.35277777,0,0,-0.35277777,-66.089611,-22.815088)"
         id="g324">
        <path
           inkscape:connector-curvature="0"
           id="path326"
           style="fill:#ffffff;fill-opacity:1;fill-rule:nonzero;stroke:none"
           d="m 0,0 c 0.308,0.205 0.461,0.525 0.461,0.962 0,0.839 -0.608,1.259 -1.826,1.259 H -3.74 v -2.528 h 2.375 C -0.762,-0.307 -0.307,-0.205 0,0 M -3.74,5.25 V 2.808 h 2.144 c 0.545,0 0.965,0.104 1.261,0.312 0.293,0.208 0.441,0.511 0.441,0.908 0,0.398 -0.148,0.701 -0.441,0.909 C -0.631,5.145 -1.051,5.25 -1.596,5.25 Z M 0.813,2.005 c 0.24,-0.285 0.36,-0.652 0.36,-1.101 0,-0.577 -0.213,-1.02 -0.639,-1.332 -0.427,-0.31 -1.056,-0.466 -1.889,-0.466 h -3.096 v 6.73 h 2.904 c 0.75,0 1.331,-0.15 1.745,-0.452 C 0.611,5.083 0.817,4.656 0.817,4.105 0.817,3.733 0.726,3.418 0.543,3.158 0.361,2.898 0.109,2.705 -0.211,2.576 0.231,2.48 0.572,2.29 0.813,2.005" />
      </g>
      <path
         inkscape:connector-curvature="0"
         id="path328"
         style="fill:#ffffff;fill-opacity:1;fill-rule:nonzero;stroke:none;stroke-width:0.35277775"
         d="m -65.102678,-24.873676 h 0.250825 v 2.373841 h -0.250825 z" />
      <g
         transform="matrix(0.35277777,0,0,-0.35277777,-64.078706,-24.873864)"
         id="g330">
        <path
           inkscape:connector-curvature="0"
           id="path332"
           style="fill:#ffffff;fill-opacity:1;fill-rule:nonzero;stroke:none"
           d="M 0,0 H 0.711 V -6.114 H 4.48 V -6.729 H 0 Z" />
      </g>
      <path
         inkscape:connector-curvature="0"
         id="path334"
         style="fill:#ffffff;fill-opacity:1;fill-rule:nonzero;stroke:none;stroke-width:0.35277775"
         d="m -62.081136,-24.873676 h 0.250825 v 2.373841 h -0.250825 z" />
      <g
         transform="matrix(0.35277777,0,0,-0.35277777,-59.659847,-23.337323)"
         id="g336">
        <path
           inkscape:connector-curvature="0"
           id="path338"
           style="fill:#ffffff;fill-opacity:1;fill-rule:nonzero;stroke:none"
           d="M 0,0 -1.615,3.615 -3.23,0 Z m 0.26,-0.576 h -3.749 l -0.807,-1.798 h -0.742 l 3.078,6.729 h 0.701 l 3.076,-6.729 h -0.75 z" />
      </g>
      <g
         transform="matrix(0.35277777,0,0,-0.35277777,-57.204336,-23.622226)"
         id="g340">
        <path
           inkscape:connector-curvature="0"
           id="path342"
           style="fill:#ffffff;fill-opacity:1;fill-rule:nonzero;stroke:none"
           d="M 0,0 C 0.353,0.295 0.529,0.708 0.529,1.241 0.529,1.785 0.353,2.203 0,2.495 -0.353,2.786 -0.861,2.933 -1.529,2.933 h -1.788 v -3.375 h 1.788 c 0.668,0 1.176,0.147 1.529,0.442 m 0.568,-3.182 -1.539,2.163 c -0.173,-0.019 -0.352,-0.028 -0.538,-0.028 h -1.808 v -2.135 h -0.711 v 6.73 h 2.519 C -0.65,3.548 0.022,3.343 0.51,2.933 0.996,2.522 1.24,1.958 1.24,1.241 1.24,0.715 1.108,0.27 0.841,-0.091 0.575,-0.453 0.195,-0.714 -0.298,-0.874 l 1.644,-2.308 z" />
      </g>
      <path
         inkscape:connector-curvature="0"
         id="path344"
         style="fill:#ffffff;fill-opacity:1;fill-rule:nonzero;stroke:none;stroke-width:0.35277775"
         d="m -56.17352,-24.873676 h 0.251177 v 2.373841 h -0.251177 z" />
      <g
         transform="matrix(0.35277777,0,0,-0.35277777,-53.603005,-22.830222)"
         id="g346">
        <path
           inkscape:connector-curvature="0"
           id="path348"
           style="fill:#ffffff;fill-opacity:1;fill-rule:nonzero;stroke:none"
           d="m 0,0 c 0.43,0.24 0.767,0.574 1.01,1.001 0.244,0.425 0.365,0.901 0.365,1.427 0,0.525 -0.121,1.002 -0.365,1.427 -0.243,0.427 -0.58,0.76 -1.01,1 -0.43,0.241 -0.91,0.361 -1.441,0.361 -0.533,0 -1.015,-0.12 -1.447,-0.361 -0.433,-0.24 -0.773,-0.573 -1.019,-1 -0.247,-0.425 -0.37,-0.902 -0.37,-1.427 0,-0.526 0.123,-1.002 0.37,-1.427 C -3.661,0.574 -3.321,0.24 -2.888,0 -2.456,-0.239 -1.974,-0.36 -1.441,-0.36 -0.91,-0.36 -0.43,-0.239 0,0 m -3.253,-0.547 c -0.542,0.298 -0.965,0.707 -1.269,1.226 -0.306,0.519 -0.457,1.101 -0.457,1.749 0,0.647 0.151,1.23 0.457,1.75 0.304,0.519 0.727,0.927 1.269,1.225 0.541,0.298 1.145,0.448 1.812,0.448 0.666,0 1.267,-0.148 1.802,-0.443 C 0.896,5.113 1.318,4.705 1.625,4.183 1.933,3.66 2.087,3.075 2.087,2.428 2.087,1.78 1.933,1.196 1.625,0.674 1.318,0.151 0.896,-0.258 0.361,-0.553 c -0.535,-0.295 -1.136,-0.441 -1.802,-0.441 -0.667,0 -1.271,0.148 -1.812,0.447" />
      </g>
      <g
         transform="matrix(0.35277777,0,0,-0.35277777,-52.156263,-22.564263)"
         id="g350">
        <path
           inkscape:connector-curvature="0"
           id="path352"
           style="fill:#ffffff;fill-opacity:1;fill-rule:nonzero;stroke:none"
           d="m 0,0 c -0.458,0.16 -0.813,0.372 -1.062,0.635 l 0.279,0.548 C -0.54,0.939 -0.216,0.742 0.188,0.591 0.591,0.44 1.007,0.365 1.437,0.365 2.039,0.365 2.492,0.476 2.792,0.697 3.094,0.918 3.244,1.205 3.244,1.558 3.244,1.826 3.162,2.041 3,2.201 2.836,2.361 2.635,2.485 2.399,2.571 2.162,2.658 1.831,2.752 1.408,2.855 0.902,2.983 0.498,3.107 0.197,3.225 c -0.302,0.119 -0.559,0.3 -0.774,0.544 -0.215,0.243 -0.322,0.573 -0.322,0.99 0,0.34 0.089,0.648 0.27,0.928 0.178,0.278 0.455,0.5 0.826,0.668 0.372,0.166 0.833,0.25 1.385,0.25 0.384,0 0.761,-0.054 1.128,-0.16 C 3.08,6.34 3.398,6.194 3.667,6.009 L 3.427,5.441 C 3.145,5.627 2.844,5.767 2.524,5.859 2.203,5.952 1.889,5.998 1.582,5.998 0.992,5.998 0.548,5.885 0.25,5.657 -0.049,5.43 -0.198,5.137 -0.198,4.778 -0.198,4.509 -0.116,4.292 0.047,4.129 0.211,3.966 0.417,3.84 0.663,3.754 0.91,3.668 1.242,3.573 1.658,3.471 2.151,3.349 2.55,3.229 2.855,3.109 3.16,2.991 3.417,2.813 3.629,2.571 3.84,2.331 3.946,2.006 3.946,1.596 3.946,1.256 3.854,0.947 3.672,0.668 3.489,0.39 3.209,0.168 2.831,0.005 2.453,-0.158 1.988,-0.24 1.437,-0.24 0.937,-0.24 0.458,-0.16 0,0" />
      </g>
      <g
         transform="matrix(0.35277777,0,0,-0.35277777,-69.041019,-48.416276)"
         id="g354">
        <path
           inkscape:connector-curvature="0"
           id="path356"
           style="fill:#d22227;fill-opacity:1;fill-rule:nonzero;stroke:none"
           d="M 0,0 V 22.399 H -23.907 Z" />
      </g>
      <g
         transform="matrix(0.35277777,0,0,-0.35277777,-78.214793,-53.031668)"
         id="g358">
        <path
           inkscape:connector-curvature="0"
           id="path360"
           style="fill:#d22227;fill-opacity:1;fill-rule:nonzero;stroke:none"
           d="m 0,0 -9.587,9.316 h -5.13 v -21.303 z" />
      </g>
      <g
         transform="matrix(0.35277777,0,0,-0.35277777,-75.912071,-50.872933)"
         id="g362">
        <path
           inkscape:connector-curvature="0"
           id="path364"
           style="fill:#d22227;fill-opacity:1;fill-rule:nonzero;stroke:none"
           d="m 0,0 -21.244,-17.189 v -8.095 h 40.721 v 7.527 z" />
      </g>
    </g>
  </g>
</svg>
