<svg version="1.1"
    xmlns="http://www.w3.org/2000/svg" xmlns:xlink="http://www.w3.org/1999/xlink" xmlns:a="http://ns.adobe.com/AdobeSVGViewerExtensions/3.0/"
    x="0px" y="0px" width="357.679px" height="276.921px" viewBox="0 0 357.679 276.921" enable-background="new 0 0 357.679 276.921"
    xml:space="preserve">
<a xlink:href="#" class="avanzar">
    <path fill="#FFCC33" d="M302.39,0.046c-12.921-1.436-15,31-22,41s-24,19-24,24s-5,24.319,18,21.319s-1-14.319,10-15.319s26,5,43,5
    s11-18,20-21s21-17-8-23C316.031,27.213,320.39,2.046,302.39,0.046z"/>
</a>

<a xlink:href="#" class="avanzar">
    <path fill="#451BCE" d="M287.39,94.046c-6.083,0,3,18-6,18s-8-9-16-9s-8,61-19,70s-42,20.206-45,13.603s18-14.366,6.476-20.913
    c-8.858-5.032-29.476,32.31-40.476,32.31s-89-5-97,0s-3,24.138,9,27.569c12,3.431,56-5.431,64,0c8,5.431-12,18.431-4,23.431
    s44-4,57-8s8-11.862,19-12.431c11-0.569,16,20.431,41,17.431s9.105-29,31.053-30c21.947-1,4.947,19,11.947,19s15-8.968,15-27.484
    s-14-25.137-14-41.826s10.957-15.69,4.979-39.69C299.39,102.046,297.39,94.046,287.39,94.046z"/>
</a>

<a xlink:href="#" class="avanzar">
    <path fill="#C92499" d="M115.39,228.615c-10.281-3.107-37,6.431-39,11.431s5,17,14,17s38-0.04,38-14.52
    C128.39,228.046,115.39,228.615,115.39,228.615z"/>
</a>

<a xlink:href="#" class="avanzar">
    <path fill="#FF9999" d="M43.39,207.562c-13.875-1.94-51,9.484-42,26.484s23-8.081,29-6.04c6,2.04-0.394,22.04-8.697,33.04
    c-8.303,11,5.697,13,11.697,11s17,11.372,27,0.686s12.222-18.686,6.111-39.686C60.39,212.046,61.39,210.079,43.39,207.562z"/>
</a>
</svg>